<?xml version="1.0" standalone="no"?>
<!DOCTYPE svg PUBLIC "-//W3C//DTD SVG 20010904//EN"
 "http://www.w3.org/TR/2001/REC-SVG-20010904/DTD/svg10.dtd">
<svg version="1.0" xmlns="http://www.w3.org/2000/svg"
 width="512.000000pt" height="512.000000pt" viewBox="0 0 512.000000 512.000000"
 preserveAspectRatio="xMidYMid meet">
<metadata>
Created by potrace 1.14, written by Peter Selinger 2001-2017
</metadata>
<g transform="translate(0.000000,512.000000) scale(0.100000,-0.100000)"
fill="#000000" stroke="none">
<path d="M514 4611 c-49 -22 -81 -54 -102 -101 -15 -32 -16 -193 -17 -1645 -1
-1020 2 -1622 8 -1642 14 -45 59 -97 104 -119 37 -18 109 -19 2023 -20 1209
-2 2005 1 2036 7 60 11 113 52 140 106 18 37 19 99 20 1648 0 1325 -2 1617
-13 1650 -17 52 -55 92 -107 116 -40 18 -111 19 -2046 19 -1935 0 -2006 -1
-2046 -19z m3812 -1753 l-1 -1373 -1765 0 -1765 0 -1 1373 0 1372 1766 0 1766
0 0 -1372z"/>
<path d="M110 867 c-145 -72 -142 -275 4 -355 29 -16 206 -17 2433 -19 1670
-2 2410 0 2430 8 57 21 95 55 118 103 48 101 13 212 -84 263 l-44 23 -2406 0
-2406 0 -45 -23z"/>
</g>
</svg>
